# xmcd CD database file
#
# Track frame offsets:
#	150
#	20077
#	55378
#	92068
#	107293
#	148926
#	179528
#
# Disc length: 2664 seconds
#
# Revision: 0
# Processed by: cddbd v1.5.2PL0 Copyright (c) Steve Scherf et al.
# Submitted via: CDex 1.84
#
DISCID=5f0a6607
DTITLE=GIANNINI PIRACCI ELECTRIC QUARTET - DROP IT!
DYEAR=2018
DGENRE=Jazz
TTITLE0=GIANNINI PIRACCI QUARTET - TOM THUMB
TTITLE1=GIANNINI PIRACCI QUARTET - DROP IT LIKE IT'S DROP
TTITLE2=GIANNINI PIRACCI QUARTET - TIME REMEMBERED
TTITLE3=GIANNINI PIRACCI QUARTET - LENNIE'S PENNIES
TTITLE4=GIANNINI PIRACCI QUARTET - A WALK WITH YOU
TTITLE5=GIANNINI PIRACCI QUARTET - BOLIVIA
TTITLE6=GIANNINI PIRACCI QUARTET - UGLY BEAUTY
EXTD=YEAR: 2018
EXTT0=
EXTT1=
EXTT2=
EXTT3=
EXTT4=
EXTT5=
EXTT6=
PLAYORDER=
